<svg id="Layer_1" data-name="Layer 1" xmlns="http://www.w3.org/2000/svg" viewBox="0 0 986.87 210.96">
	<title>
		BlckTxt
	</title>
	<path d="M52.13,70.67A23.66,23.66,0,0,1,48,57.87c0-13.57,13.05-21,22.78-21,10,0,16.65,8.46,19.21,15.88,2.29,7.17,2.81,15.62,2.81,22.78a63.67,63.67,0,0,0,11,1c5.89,0,12-1.29,14.59-6.41a29.39,29.39,0,0,0,3.08-13.31C121.52,34.06,92.84,21,73.13,21,55,21,35,28.16,25,44.55A43.07,43.07,0,0,0,18.6,67.08a46.57,46.57,0,0,0,3.84,17.68c7.94,18.42,26.62,33.78,41.47,43.76,15.87,10.5,35.59,26.12,43.27,41.23,2,4.1,3.32,7.94,3.32,12a21.38,21.38,0,0,1-.76,5.63c-3.59,11.27-18.43,17.16-33.54,17.16-18.44,0-38.41-7.42-42.5-19.46a17.41,17.41,0,0,1-1-6.14c0-9.47,7.94-17.15,18.18-18.94a5,5,0,0,0,1.54-3.34c0-2.3-2.56-4.61-8.7-4.61-15.62,0-37.12,14.59-37.12,38.15,0,17.67,15.1,30.46,37.63,34.82a101.58,101.58,0,0,0,19.71,1.79c24.57,0,49.15-8.71,64.52-27.65,7.42-9.22,11.26-20.22,11.26-30,0-12-6.39-25.6-16.64-36.85C103.59,111.38,65.7,91.92,52.13,70.67Z" transform="translate(-6.57 -15.88)" />
	<path d="M377.51,68.11c6.91,0,14.33-3.33,14.33-10.5s-4.6-13.06-10.75-16.9c-5.11-3.32-11-5.37-16.13-5.37-5.88,0-10.24,1.79-12.54,4.87a10.38,10.38,0,0,0-2.05,6.13c0,3.59,1.78,7.69,5.12,11.53C361.12,64,369.83,68.11,377.51,68.11Z" transform="translate(-6.57 -15.88)" />
	<path d="M987,175.89c-2.31,8.71-12.8,26.89-22,26.89a9.57,9.57,0,0,1-3.59-1c-3.84-1.79-5.12-11-5.12-23,0-14.86,1.8-34.58,3.33-49.17.78-7.67,1.29-14.07,1.29-16.63-.26-11.27-14.6-20.49-22.53-20.49-2.82,0-4.62,1.28-4.87,3.84a74.78,74.78,0,0,1-1,9.22A39.75,39.75,0,0,0,900,88.33a35.65,35.65,0,0,0-13.56,2.56c-21.26,8.46-31.76,39.94-31.76,66.06v2.81a97.54,97.54,0,0,0,3.05,21.34v0c-2.25,4.71-6,10.88-10.46,15-2.56,2.56-6.15,4.86-8.71,4.86s-4.61-.76-5.89-2.56c-2.81-3.58-3.06-10.5-3.06-18.17,0-13.83,1.53-26.89,2.56-39.95.5-7.92,1.28-15.35,1.28-22s-.78-12.55-3.08-17.67c-5.63-12-15.87-15.61-23-15.61h-2.05c0,14.85-1.79,29.69-3.07,44-1,13.82-2.31,27.4-2.31,39.69A112.22,112.22,0,0,0,801,187a41.44,41.44,0,0,1-2.89,4.52c-3.32,4.36-7.16,7.94-11.52,7.94a9.41,9.41,0,0,1-4.35-1.28c-4.1-2.3-6.91-13.83-7.94-31.23-.25-5.64-.5-11.27-.5-16.9,0-11.78.76-23.3,1.53-34.83,4.1-11.26,16.38-46.34,16.38-68.09a30.18,30.18,0,0,0-11.26-24.07c-5.89-4.61-12.8-7.17-19.2-7.17s-11.78,2.81-13.57,8.2c-4.35,12-5.38,37.88-5.38,66v2.31a40.92,40.92,0,0,0-15.87-3.07c-13.06,0-23.3,4.87-30.46,15.1-11,15.62-15.88,35.59-15.88,54.54a107.73,107.73,0,0,0,2.27,22.33,51,51,0,0,1-7.38,9.42c-7.17,7.16-16.13,11.51-24.84,11.51-6.66,0-13.57-2.81-19.45-9.22-8.71-8.95-11.78-24.82-11.78-41.21,13.82,0,29.19-3.85,40.19-12.54,9-7.18,13.82-15.62,13.82-24.84a26.93,26.93,0,0,0-2.81-12.3c-4.6-10.23-19.45-17.91-34.82-17.91-12.8,0-26.11,5.37-35.33,18.94-9.22,13.31-13.57,31.76-13.57,49.67,0,11.38,1.7,22.57,5.4,32.16a47.58,47.58,0,0,1-6.42,10.34c-3.58,4.35-7.67,7.68-11.78,7.68a7.17,7.17,0,0,1-3.83-1c-9-5.38-10.49-25.35-10.49-49.68v-6.39c10-27.65,18.68-53.51,18.68-79.11,0-13.58-4.36-30-13.56-39.94-5.12-5.37-11.78-9-20-9-6.91,0-12.8,4.35-15.1,14.07-2.82,10.77-3.84,31.5-3.84,53,0,20.22.77,42.23,2.3,58.62,1.51,15.83,3,29.81,5.16,41v0c-4.41,8.57-11.77,18.15-18.46,18.15a9.57,9.57,0,0,1-3.59-1c-3.84-1.79-5.12-11-5.12-23,0-14.86,1.8-34.58,3.33-49.17.76-7.67,1.28-14.07,1.28-16.63-.25-11.27-14.59-20.49-22.53-20.49-2.81,0-4.61,1.28-4.86,3.84a76.78,76.78,0,0,1-1,9.22,39.75,39.75,0,0,0-32.51-17.16,35.83,35.83,0,0,0-13.58,2.56c-21.23,8.46-31.73,39.94-31.73,66.06v2.81a97,97,0,0,0,3,21.34c-2.24,4.71-6,10.9-10.46,15-2.56,2.56-6.14,4.86-8.7,4.86s-4.62-.76-5.9-2.56c-2.81-3.58-3.07-10.5-3.07-18.17,0-13.83,1.54-26.89,2.57-39.95.5-7.92,1.26-15.35,1.26-22s-.76-12.55-3.06-17.67c-5.63-12-15.88-15.61-23-15.61h-2c0,14.85-1.79,29.69-3.07,44-1,13.82-2.31,27.4-2.31,39.69,0,3.71,0,7.28.28,10.9A47.89,47.89,0,0,1,335,196.12a33.65,33.65,0,0,1-18.7,5.89,23.88,23.88,0,0,1-16.38-5.89c-10-9-14.59-28.93-14.59-48.14,0-24.31,7.41-47.87,20-47.87a18.14,18.14,0,0,1,3.34.51c4.09,1.28,5.37,6.67,5.37,12.55,0,7.43-1.8,16.13-5.37,20.74,3.07,2.56,9,5.63,14.07,5.63,12,0,16.14-13.06,16.14-22.78a35.44,35.44,0,0,0-3.33-15.37c-5.38-10.24-17.93-17.15-31.75-17.15-12,0-25.34,5.63-35.08,18.94-8.4,11.6-12.78,26.82-13.65,42.28a58.15,58.15,0,0,1-10.91,3.3,132.79,132.79,0,0,0-5.63-33.28,41.37,41.37,0,0,0-25.35-26.12A48.34,48.34,0,0,0,196.26,86a28.69,28.69,0,0,0-13.06,2.8A26.27,26.27,0,0,0,168.09,95c-12.79,9.47-20.22,32.25-20.22,56.07,0,15.36,3.08,31.75,10.5,44.81,7.68,14.07,27.65,23.29,44.8,23.29,6.66,0,13.06-1.53,17.93-4.6,13.82-8.71,19.7-26.89,22-46.61a81.44,81.44,0,0,0,12.77-2.77c1.82,12.6,6,24.6,11.79,32.48,10.25,13.82,28.17,22,44.55,22a53.64,53.64,0,0,0,37.14-15.11,54.29,54.29,0,0,0,4.44-4.76c4.27,10.55,14.75,19.35,29.85,19.35,11,0,21-7.42,28.17-20.22.38-.7.75-1.43,1.09-2.16a61.21,61.21,0,0,0,3.25,5.73c6.14,9.74,14.59,15.62,23.29,15.62a21.29,21.29,0,0,0,6.66-1c16.14-5.64,28.42-41.74,32-54,0,1-.26,2-.26,3.07-.26,4.09-.51,7.42-.51,10.75,0,6.4.77,12.8,3.07,23,1,4.35,4.34,8.45,8.45,11.52,5.38,4.09,14.08,7.43,20.22,7.43,12.19,0,22.54-8.14,28.68-17.7a30.31,30.31,0,0,0,3.06,5.41,31.11,31.11,0,0,0,25.6,13.06,34.85,34.85,0,0,0,12.3-2.31c5.88-2.31,15.1-10.75,19.95-19a2.69,2.69,0,0,0,.19-.32c.28.36.55.73.84,1.09,11.52,14.59,28.15,19.72,43.26,19.72a59.29,59.29,0,0,0,40.2-15.62,48.74,48.74,0,0,0,4.92-5.26,50.35,50.35,0,0,0,6.34,9.87c6.64,7.67,14.59,11.26,21,11.26a16.69,16.69,0,0,0,5.12-.76c9.47-3.59,19.19-26.64,24.82-40,.78,5.12,3.08,19.21,5.9,25.09C757.4,216.09,769.18,221,775.84,221c7.94,0,15.62-3.33,21.76-8.46a44.22,44.22,0,0,0,8.4-9.23c5,8.95,14.79,15.89,28.2,15.89,11,0,21-7.42,28.16-20.22.39-.7.76-1.43,1.11-2.16a61.13,61.13,0,0,0,3.23,5.73c6.15,9.74,14.59,15.62,23.3,15.62a21.29,21.29,0,0,0,6.66-1c16.14-5.64,28.42-41.74,32-54,0,1-.25,2-.25,3.07-.26,4.09-.51,7.42-.51,10.75,0,6.4.76,12.8,3.07,23,1,4.35,4.36,8.45,8.45,11.52,5.38,4.09,14.08,7.43,20.22,7.43,15.88,0,28.68-13.82,33-26.63a22.91,22.91,0,0,0,.76-5.63C993.43,180,989.86,176.66,987,175.89ZM639.91,97c5.37,0,10,6.66,10,13.82,0,6.91-4.1,16.13-11.78,21.52a51.93,51.93,0,0,1-18.69,7.41C621.73,119.32,629.92,97,639.91,97ZM211.63,190.48c-2.83,6.15-5.9,10.25-9,11.53a7,7,0,0,1-3.08.77c-5.89,0-11.26-7.68-14.6-19.21a106.38,106.38,0,0,1-4.09-30.21,65.33,65.33,0,0,0,17.92,10,105.83,105.83,0,0,0,19.72,4.87A115.84,115.84,0,0,1,211.63,190.48ZM221.35,150c-7.43-.26-16.64-3.34-22.53-9-6.92-6.91-11.26-15.1-11.26-22.78A17,17,0,0,1,191.65,107a9.6,9.6,0,0,1,6.92-3.07c7.16,0,16.13,7.17,20.22,17.41,2,5.38,3.07,12.8,3.07,20C221.86,144.41,221.61,147.48,221.35,150Zm236,32.52c-4.6,7.92-9.22,13-13.06,13s-7.43-12.28-7.43-25.34c0-21,6.15-50.43,16.65-61.44,3.07-3.08,6.13-4.36,9-4.36,8.45,0,15.1,11.52,15.87,19.72C473.76,144.92,465.57,168.47,457.38,182.56ZM550.05,76.81c0-13.06.76-23,5.63-23,5.12,0,6.91,7.68,6.91,16.9,0,18.17-9.73,50.44-9.73,50.44A310.56,310.56,0,0,1,550.05,76.81ZM731.81,179.48c-4.62,9.47-8.71,15.36-12.54,15.36-5.9,0-8.71-12.8-8.71-27.39,0-20.23,5.12-47.37,16.38-57.35,4.36-4.11,8.71-5.39,12.28-5.39a11.86,11.86,0,0,1,3.08.27c.26,18.69.78,35.84,1.28,45.57A280,280,0,0,1,731.81,179.48ZM765.34,93.2c-.76-7.68-2-15.11-2-26.12,0-11.25,1.53-22.53,6.15-23,5.11,0,5.63,5.88,5.63,9.47,0,5.88-2.06,15.1-4.36,23C768.17,85.52,765.34,93.2,765.34,93.2Zm142.59,89.36c-4.61,7.92-9.22,13-13.06,13s-7.43-12.28-7.43-25.34c0-21,6.15-50.43,16.65-61.44,3.07-3.08,6.15-4.36,9-4.36,8.45,0,15.1,11.52,15.87,19.72C924.31,144.92,916.12,168.47,907.93,182.56Z" transform="translate(-6.57 -15.88)" />
	<path d="M828.05,68.11c6.92,0,14.34-3.33,14.34-10.5s-4.61-13.06-10.75-16.9c-5.12-3.32-11-5.37-16.13-5.37-5.88,0-10.24,1.79-12.55,4.87a10.37,10.37,0,0,0-2,6.13c0,3.59,1.79,7.69,5.12,11.53C811.67,64,820.38,68.11,828.05,68.11Z" transform="translate(-6.57 -15.88)" />
</svg>
